<svg xmlns:dc="http://purl.org/dc/elements/1.1/" xmlns:cc="http://creativecommons.org/ns#" xmlns:rdf="http://www.w3.org/1999/02/22-rdf-syntax-ns#" xmlns:svg="http://www.w3.org/2000/svg" xmlns="http://www.w3.org/2000/svg" xmlns:xlink="http://www.w3.org/1999/xlink" xmlns:sodipodi="http://sodipodi.sourceforge.net/DTD/sodipodi-0.dtd" xmlns:inkscape="http://www.inkscape.org/namespaces/inkscape" width="5.6444445mm" height="5.6444445mm" viewBox="-1 -1 22 22" id="svg2" inkscape:version="0.92.1 r15371" sodipodi:docname="template1.svg" inkscape:export-xdpi="648" inkscape:export-ydpi="648"><title id="title4560">Gadgetbridge Icon</title><sodipodi:namedview id="base" pagecolor="#ffffff" bordercolor="#666666" borderopacity="1" inkscape:pageopacity="0" inkscape:pageshadow="2" inkscape:zoom="11.2" inkscape:cx="-40.722947" inkscape:cy="18.815618" inkscape:document-units="px" inkscape:current-layer="layer1" showgrid="false" fit-margin-top="0" fit-margin-left="0" fit-margin-right="0" fit-margin-bottom="0" showguides="true" inkscape:guide-bbox="true" inkscape:window-width="1920" inkscape:window-height="1017" inkscape:window-x="-8" inkscape:window-y="-8" inkscape:window-maximized="1" inkscape:snap-grids="true" inkscape:snap-to-guides="false" inkscape:snap-page="true"><inkscape:grid type="xygrid" id="grid4138"/><sodipodi:guide position="10,18" orientation="0,1" id="guide4140" inkscape:locked="false"/><sodipodi:guide position="10,2" orientation="0,1" id="guide4142" inkscape:locked="false"/><sodipodi:guide position="2,10" orientation="1,0" id="guide4144" inkscape:locked="false"/><sodipodi:guide position="0,0" orientation="0,20" id="guide4146" inkscape:locked="false"/><sodipodi:guide position="20,0" orientation="-20,0" id="guide4148" inkscape:locked="false"/><sodipodi:guide position="20,20" orientation="0,-20" id="guide4150" inkscape:locked="false"/><sodipodi:guide position="0,20" orientation="20,0" id="guide4152" inkscape:locked="false"/><sodipodi:guide position="17.934153,10.890707" orientation="1,0" id="guide4154" inkscape:locked="false"/><sodipodi:guide position="8.5170198,7.5753346" orientation="-0.70710678,0.70710678" id="guide4156" inkscape:locked="false"/><sodipodi:guide position="4,10" orientation="1,0" id="guide4160" inkscape:locked="false"/><sodipodi:guide position="16,10" orientation="1,0" id="guide4162" inkscape:locked="false"/><sodipodi:guide position="10,4" orientation="0,1" id="guide4166" inkscape:locked="false"/><sodipodi:guide position="10,15" orientation="0,1" id="guide4168" inkscape:locked="false"/><sodipodi:guide position="10,5" orientation="0,1" id="guide4170" inkscape:locked="false"/><sodipodi:guide position="5,10" orientation="1,0" id="guide4172" inkscape:locked="false"/><sodipodi:guide position="15,10" orientation="1,0" id="guide4174" inkscape:locked="false"/></sodipodi:namedview><defs id="defs4"><linearGradient inkscape:collect="always" id="linearGradient13455"><stop style="stop-color:#000000;stop-opacity:.2" id="stop13457"/><stop style="stop-color:#000000;stop-opacity:0" offset="1" id="stop13459"/></linearGradient><clipPath id="clipPath12478" clipPathUnits="userSpaceOnUse"><circle r="10" cy="10.000005" cx="9.9999781" id="circle12480" style="opacity:1;fill:#2196f3;fill-opacity:1;stroke:none;stroke-width:.05069799;stroke-miterlimit:4;stroke-dasharray:none;stroke-opacity:1"/></clipPath><clipPath clipPathUnits="userSpaceOnUse" id="clipPath5790"><circle r="10" cy="10.000005" cx="9.9999781" id="circle5792" style="opacity:1;fill:#2196f3;fill-opacity:1;stroke:none;stroke-width:.05069799;stroke-miterlimit:4;stroke-dasharray:none;stroke-opacity:1" inkscape:export-filename="/home/juergen/path4136.png" inkscape:export-xdpi="648" inkscape:export-ydpi="648"/></clipPath><clipPath id="clipPath5055" clipPathUnits="userSpaceOnUse"><circle r="10" cy="10.000005" cx="9.9999781" id="circle5057" style="opacity:1;fill:#2196f3;fill-opacity:1;stroke:none;stroke-width:.05069799;stroke-miterlimit:4;stroke-dasharray:none;stroke-opacity:1" inkscape:export-filename="/home/juergen/path4136.png" inkscape:export-xdpi="648" inkscape:export-ydpi="648"/></clipPath><clipPath clipPathUnits="userSpaceOnUse" id="clipPath5119"><circle r="10" cy="10.000005" cx="9.9999781" id="circle5121" style="opacity:1;fill:#2196f3;fill-opacity:1;stroke:none;stroke-width:.05069799;stroke-miterlimit:4;stroke-dasharray:none;stroke-opacity:1" inkscape:export-filename="/home/juergen/Schreibtisch/path4136.png" inkscape:export-xdpi="648" inkscape:export-ydpi="648"/></clipPath><clipPath id="clipPath5194" clipPathUnits="userSpaceOnUse"><circle r="10" cy="10.000005" cx="9.9999781" id="circle5196" style="opacity:1;fill:#cddc39;fill-opacity:1;stroke:none;stroke-width:.05069799;stroke-miterlimit:4;stroke-dasharray:none;stroke-opacity:1" inkscape:export-filename="/home/juergen/Schreibtisch/path4136.png" inkscape:export-xdpi="648" inkscape:export-ydpi="648"/></clipPath><clipPath clipPathUnits="userSpaceOnUse" id="clipPath6175"><circle r="10" cy="10.000005" cx="9.9999781" id="circle6177" style="opacity:1;fill:#f44336;fill-opacity:1;stroke:none;stroke-width:.05069799;stroke-miterlimit:4;stroke-dasharray:none;stroke-opacity:1" inkscape:export-filename="/home/juergen/Schreibtisch/path4136.png" inkscape:export-xdpi="648" inkscape:export-ydpi="648"/></clipPath><clipPath id="clipPath7176" clipPathUnits="userSpaceOnUse"><circle r="10" cy="10.000005" cx="9.9999781" id="circle7178" style="opacity:1;fill:#9c27b0;fill-opacity:1;stroke:none;stroke-width:.05069799;stroke-miterlimit:4;stroke-dasharray:none;stroke-opacity:1" inkscape:export-filename="/home/juergen/Schreibtisch/path4136.png" inkscape:export-xdpi="648" inkscape:export-ydpi="648"/></clipPath><clipPath clipPathUnits="userSpaceOnUse" id="clipPath8165"><circle r="10" cy="10.000005" cx="9.9999781" id="circle8167" style="opacity:1;fill:#ffc107;fill-opacity:1;stroke:none;stroke-width:.05069799;stroke-miterlimit:4;stroke-dasharray:none;stroke-opacity:1" inkscape:export-filename="/home/juergen/Schreibtisch/path4136.png" inkscape:export-xdpi="648" inkscape:export-ydpi="648"/></clipPath><clipPath id="clipPath9162" clipPathUnits="userSpaceOnUse"><circle r="10" cy="10.000005" cx="9.9999781" id="circle9164" style="opacity:1;fill:#ff9800;fill-opacity:1;stroke:none;stroke-width:.05069799;stroke-miterlimit:4;stroke-dasharray:none;stroke-opacity:1" inkscape:export-filename="/home/juergen/Schreibtisch/path4136.png" inkscape:export-xdpi="648" inkscape:export-ydpi="648"/></clipPath><clipPath clipPathUnits="userSpaceOnUse" id="clipPath5147"><circle r="10" cy="10.000005" cx="9.9999781" id="circle5149" style="opacity:1;fill:#ff9800;fill-opacity:1;stroke:none;stroke-width:.05069799;stroke-miterlimit:4;stroke-dasharray:none;stroke-opacity:1" inkscape:export-filename="/home/juergen/Schreibtisch/path4136.png" inkscape:export-xdpi="648" inkscape:export-ydpi="648"/></clipPath><clipPath id="clipPath6144" clipPathUnits="userSpaceOnUse"><circle r="10" cy="10.000005" cx="9.9999781" id="circle6146" style="opacity:1;fill:#e91e63;fill-opacity:1;stroke:none;stroke-width:.05069799;stroke-miterlimit:4;stroke-dasharray:none;stroke-opacity:1" inkscape:export-filename="/home/juergen/Schreibtisch/path4136.png" inkscape:export-xdpi="648" inkscape:export-ydpi="648"/></clipPath><clipPath clipPathUnits="userSpaceOnUse" id="clipPath7143"><circle r="10" cy="10.000005" cx="9.9999781" id="circle7145" style="opacity:1;fill:#ffeb3b;fill-opacity:1;stroke:none;stroke-width:.05069799;stroke-miterlimit:4;stroke-dasharray:none;stroke-opacity:1" inkscape:export-filename="/home/juergen/Schreibtisch/path4136.png" inkscape:export-xdpi="648" inkscape:export-ydpi="648"/></clipPath><clipPath id="clipPath8148" clipPathUnits="userSpaceOnUse"><circle r="10" cy="10.000005" cx="9.9999781" id="circle8150" style="opacity:1;fill:#9c27b0;fill-opacity:1;stroke:none;stroke-width:.05069799;stroke-miterlimit:4;stroke-dasharray:none;stroke-opacity:1" inkscape:export-filename="/home/juergen/Schreibtisch/path4136.png" inkscape:export-xdpi="648" inkscape:export-ydpi="648"/></clipPath><clipPath clipPathUnits="userSpaceOnUse" id="clipPath5332"><circle r="10" cy="10.000005" cx="9.9999781" id="circle5334" style="opacity:1;fill:#f44336;fill-opacity:1;stroke:none;stroke-width:.05069799;stroke-miterlimit:4;stroke-dasharray:none;stroke-opacity:1" inkscape:export-filename="/home/juergen/Schreibtisch/path4136.png" inkscape:export-xdpi="648" inkscape:export-ydpi="648"/></clipPath><clipPath id="clipPath6341" clipPathUnits="userSpaceOnUse"><circle r="10" cy="10.000005" cx="9.9999781" id="circle6343" style="opacity:1;fill:#4caf50;fill-opacity:1;stroke:none;stroke-width:.05069799;stroke-miterlimit:4;stroke-dasharray:none;stroke-opacity:1" inkscape:export-filename="/home/juergen/Schreibtisch/path4136.png" inkscape:export-xdpi="648" inkscape:export-ydpi="648"/></clipPath><clipPath clipPathUnits="userSpaceOnUse" id="clipPath7354"><circle r="10" cy="10.000005" cx="9.9999781" id="circle7356" style="opacity:1;fill:#f44336;fill-opacity:1;stroke:none;stroke-width:.05069799;stroke-miterlimit:4;stroke-dasharray:none;stroke-opacity:1" inkscape:export-filename="/home/juergen/Schreibtisch/path4136.png" inkscape:export-xdpi="648" inkscape:export-ydpi="648"/></clipPath><clipPath id="clipPath8344" clipPathUnits="userSpaceOnUse"><circle r="10" cy="10.000005" cx="9.9999781" id="circle8346" style="opacity:1;fill:#673ab7;fill-opacity:1;stroke:none;stroke-width:.05069799;stroke-miterlimit:4;stroke-dasharray:none;stroke-opacity:1" inkscape:export-filename="/home/juergen/Schreibtisch/path4136.png" inkscape:export-xdpi="648" inkscape:export-ydpi="648"/></clipPath><clipPath clipPathUnits="userSpaceOnUse" id="clipPath9436"><circle r="10" cy="10.000005" cx="9.9999781" id="circle9438" style="opacity:1;fill:#9e9e9e;fill-opacity:1;stroke:none;stroke-width:.05069799;stroke-miterlimit:4;stroke-dasharray:none;stroke-opacity:1" inkscape:export-filename="/home/juergen/Schreibtisch/path4136.png" inkscape:export-xdpi="648" inkscape:export-ydpi="648"/></clipPath><clipPath id="clipPath10432" clipPathUnits="userSpaceOnUse"><circle r="10" cy="10.000005" cx="9.9999781" id="circle10434" style="opacity:1;fill:#795548;fill-opacity:1;stroke:none;stroke-width:.05069799;stroke-miterlimit:4;stroke-dasharray:none;stroke-opacity:1" inkscape:export-filename="/home/juergen/Schreibtisch/path4136.png" inkscape:export-xdpi="648" inkscape:export-ydpi="648"/></clipPath><clipPath clipPathUnits="userSpaceOnUse" id="clipPath11433"><circle r="10" cy="10.000005" cx="9.9999781" id="circle11435" style="opacity:1;fill:#03a9f4;fill-opacity:1;stroke:none;stroke-width:.05069799;stroke-miterlimit:4;stroke-dasharray:none;stroke-opacity:1" inkscape:export-filename="/home/juergen/Schreibtisch/path4136.png" inkscape:export-xdpi="648" inkscape:export-ydpi="648"/></clipPath><clipPath id="clipPath12452" clipPathUnits="userSpaceOnUse"><circle r="10" cy="10.000005" cx="9.9999781" id="circle12454" style="opacity:1;fill:#ffc107;fill-opacity:1;stroke:none;stroke-width:.05069799;stroke-miterlimit:4;stroke-dasharray:none;stroke-opacity:1" inkscape:export-filename="/home/juergen/Schreibtisch/path4136.png" inkscape:export-xdpi="648" inkscape:export-ydpi="648"/></clipPath><linearGradient inkscape:collect="always" xlink:href="#linearGradient13455" id="linearGradient13461" x1="9.9553576" y1="9.9553566" x2="20" y2="20" gradientUnits="userSpaceOnUse"/><clipPath clipPathUnits="userSpaceOnUse" id="clipPath13465"><circle r="10" cy="10.000005" cx="9.9999781" id="circle13467" style="opacity:1;fill:#e91e63;fill-opacity:1;stroke:none;stroke-width:.05069799;stroke-miterlimit:4;stroke-dasharray:none;stroke-opacity:1" inkscape:export-filename="/home/juergen/Schreibtisch/path4136.png" inkscape:export-xdpi="648" inkscape:export-ydpi="648"/></clipPath></defs><g inkscape:label="Hintergrund" inkscape:groupmode="layer" id="layer1" transform="translate(1058.1428,-861.93365)"><circle inkscape:export-ydpi="648" inkscape:export-xdpi="648" inkscape:export-filename="/home/juergen/Schreibtisch/path4136.png" style="opacity:1;fill:#0091ea;fill-opacity:1;stroke:none;stroke-width:.05069799;stroke-miterlimit:4;stroke-dasharray:none;stroke-opacity:1" id="path4136" cx="-1048.1428" cy="871.93365" r="10"/><path style="fill:url(#linearGradient13461);fill-opacity:1;stroke-width:.2;stroke-linejoin:round" d="M6.134855 7.8575793C5.5887444 7.7737975 8.9732 11.36764 8.9732 11.91964c.7720204 2.953627-.3190754 2.368775-1.3911929 4.54893.0.314113 2.8336269 3.63544 3.0589809 3.818814.04391.05518.09008.103734.144531.148437.04494.0568.09237.106597.148438.152344.04462.05589.09299.10335.148437.148437.0433.05399.08913.10065.142578.144532.04401.05535.08991.103622.144532.148437.04462.05589.09299.10335.148437.148438.04281.05303.08799.09936.140625.142578.0433.05399.08913.100649.142578.144531.0429.05343.08778.101002.140625.144531.04305.0535.08955.09904.142578.142578.04259.05283.08633.09947.138672.142579.04241.05266.08853.09762.140625.140624.04231.05246.08674.09775.138672.140626.04224.05233.08685.09785.138672.140624.04196.05198.0853.09806.136719.140626.04204.05191.218042.230956.269531.273437.04036.0496-.04904-.04097.0.0.04207.05223.08706.09788.138672.140625.04161.05109 1.939454 1.964844.136719.136719.0402.04908.673987-1.491056.722706-1.450484.0407.05002.08329.09352.132812.134766.03972.04878-.511067 1.675676-.46294 1.716108.04056.05008.08344.09344.132812.134766.04069.04997.08332.09357.132813.134766.03936.0479.08141.08913.128906.128906.03997.04887.0805.09236.128907.132812.0394.04798.208293.219929.255859.259766.03933.04803-.0475-.0399.0.0.03941.04797.08133.08909.128907.128906.03805.04609.07742.08645.123046.125.03972.04853.08085.09063.128907.13086.03812.04614.07734.08643.123047.125.03891.04709.08015.08776.126953.126953.03709.04468.0749.08353.11914.121094.03888.04724.07819.08957.125.128906.03698.0444.0751.08376.119141.121094.03744.0452.07636.08512.121094.123046.939453.953125.07678.08344.121094.121094.03702.04459.075.0836.11914.121094.03695.04448.0751.08368.119141.121094.03643.04385.07387.08215.117187.11914.03701.04454.07503.08364.119141.121094.03593.0429.07267.08091.115234.117188.03646.04374.07386.08225.117188.11914.03472.04132.07043.07812.111328.113281.03672.04408.07545.08202.119141.119141.159451.01975.495139.310768.33789.34375.03367.03982.06799.0753.107422.109375.03567.04259.07302.07917.115234.115234.03376.03984.06789.07531.107422.109375.03482.04131.07033.07814.111328.113282.03318.03905.06673.07392.105469.107422 1.997761.694544 9.103709 2.908451 10.44526 2.898372h.002c.275418.0.52417-.112641.705078-.292969C28.886751 29.72516 29 29.4758 29 29.199219L27.879654 21.07464h-.002l-.002-.002-.002-.002v-.002l-.0039-.002-.0039-.0059-.0039-.0039-.0059-.0059-.0059-.0059-.0078-.0078-.0078-.0078-.0078-.0078-.0098-.0098-.0098-.0098-.01172-.01172-.01172-.01172-.01172-.01172-.01367-.01367-.01367-.01367-.01367-.01563-.01562-.01563-.01563-.01563-.01758-.01563-.01758-.01953-.01758-.01758-.01953-.01953-.01953-.01953-.01953-.01953v-.002l-.02148-.02148-.02148-.02148-.02344-.02344-.02344-.02344-.02344-.02344-.02539-.02539-.02539-.02734-.02539-.02539-.02734-.02734-.02734-.0293-.0293-.0293-.0293-.0293-.03125-.0293-.0293-.03125-.03125-.0332-.0332-.0332-.0332-.0332-.0332-.0332-.03516-.03516-.03516-.03516-.03516-.03711-.03711-.03711-.03711-.03906-.03906-.03711-.03906-.04102-.03906-.03906-.04102-.04102-.04102-.04297-.04297-.04102-.04102-.04102v-.002-.002l-.04492-.04297-.04297-.04492-.04492-.04492-.04687-.04687-.04492-.04687-.04883-.04883-.04687-.04687-.04883-.05078-.04883-.04883-.05078-.05078-.05078-.05273-.05078-.05078-.05273-.05469-.05273-.05273-.05469-.05469-.05469-.05469-.05469-.05664-.05664-.05664-.05664-.05859-.05859-.05859-.05664-.05859-.06055-.05859-.05859-.06055-.06055-.0625-.0625-.0625-.06055-.0625-.0625-.0625-.06445-.06445-.06445-.06641-.06445-.06445-.06641-.06641-.06641-.06836-.06641-.06836-.06836-.06836-.06836-.07031-.07031-.07031-.07031-.07031-.07031-.07227-.07227-.07227-.07227-.07422-.07227-.07422-.07422-.07422-.07422-.07617-.07617-.07617-.07617-.07617-.07617-.07813-.07813-.07813-.07813-.08008-.07813-.08008-.08008-.08008-.08203-.08203-.08008-.08203-.08203-.08398-.08398-.08398-.08203-.08398-.08398-.08594-.08594-.08594-.08594-.08789-.08594-.08594-.08789-.08984-.08789-.08789-.08789-.08984-.08984-.0918-.08984-.0918-.0918-.0918-.0918-.0918-.0918-.09375-.09375-.0957-.09375-.0957-.09375-.0957-.0957-.0957-.09766-.09766-.0957-.09766-.09766-.09961-.09961-.09961-.09766-.09961-.09961-.101562L21.012211 14.117126 20.910649 14.01361 20.809087 13.910094 20.705571 13.806579 20.602055 13.70111 20.49854 13.595641 20.393071 13.488219 20.287602 13.380797 20.18018 13.273376 20.072758 13.164 19.965337 13.054626 19.855961 12.94525 19.851219 12.854848 19.741843 12.74352 19.630515 12.630239 19.519187 12.516958 19.405906 12.403676 19.292625 12.288442 19.179343 12.173208 19.064109 12.05602 18.948875 11.940786 18.831687 11.821645 18.7145 11.704458 18.597312 11.585317 18.480125 11.46813v-.0039l-.119141-.121093-.121094-.121094-.121093-.123047-.121094-.123047-.121094-.123047-.123047-.125-.125-.125-.123047-.125-.125-.126953-.126953-.128906-.126953-.126953-.126953-.1289072-.126953-.126953v-.0039L16.744052 9.7049408 16.613192 9.5740803 16.484286 9.4432213 16.353427 9.3104083 16.220614 9.1756433 16.087802 9.0408773 15.954989 8.9061124 15.820224 8.7713464 15.685458 8.6346274 15.550692 8.4998624v-.0039l-.136718-.136725-.136719-.138672-.136719-.136719v-.0039L15.001864 7.9393154l-.140625-.1406252-.138672-.140625-.140625-.140625v-.00391l-.142578-.1425744L14.296786 7.2264245l-.142578-.1445312v0L14.007009 6.9923893 13.395553 6.3374386 12.445852 5.7116899 11.682337 4.9970274 11.461514 4.8293121l-1.166738-.9943192C9.7457728 3.3921062 9.0255387 4.1644713 9.0255387 4.1644713l-1.1272163.8848415c-.170375.1337409 1.8698728 1.4925683 1.5206347 1.4765208C9.1783033 6.5147756 7.9346571 5.7850447 7.4996252 5.5958611 6.9046896 5.3371397 6.6803727 7.9412701 6.134855 7.8575793z" transform="translate(-1058.1428,861.93365)" id="path12581" clip-path="url(#clipPath13465)" inkscape:connector-curvature="0" sodipodi:nodetypes="sccccccccccccccccccccccccccccccccccccccccccccccccccccccccccsccccccccccccccccccccccccccccccccccccccccccccccccccccccccccccccccccccccccccccccccccccccccccccccccccccccccccccccccccccccccccccccccccccccccccccccccccccccccccccccccccccccccccccccccccccccccccccccccccccccccccccccccccssss"/><path inkscape:connector-curvature="0" id="path12456" d="m-1050.6874 868.40686.1339 3.79465.2678.89285 1.1161.75893 1.5179.0446 1.6071-.40178.5357-1.25-.1339-3.83929h-4.9107z" style="fill:none;fill-rule:evenodd;stroke:none;stroke-width:1px;stroke-linecap:butt;stroke-linejoin:miter;stroke-opacity:1"/><g style="fill:#fff;fill-opacity:1;stroke:none;stroke-opacity:.5098038" id="g6427" transform="matrix(0.10900039,0,0,0.10900039,-1058.4564,854.81407)"><g transform="translate(-0.19198408,15.28344)" id="g5859" style="fill:#ff5000;fill-opacity:1"><g id="g4591" transform="matrix(0.96469159,0,0,0.96469159,3.3476544,3.8272566)"><g style="fill:#fff;fill-opacity:1;stroke:none;stroke-opacity:.5098038" id="g4600" transform="matrix(2.0186569,0,0,2.0186569,394.57822,-108.82609)"><path style="fill:#fff;fill-opacity:1;stroke-width:.26458332" d="m-136.77732 155.22239-.52821-12.65678c-.18542-8.88992 7.31203-16.43236 9.31124-23.07234-2.12299 2.02696-6.52318 11.59925-11.09114 10.79579-2.54776-.85577-3.35187-2.05496-4.38456-4.23069-3.42275.6668-6.14301-1.35553-7.13076-3.79658l.19658 9.86107-4.46061-12.79348c-3.48621-1.12814-6.68377-6.4807-3.47994-5.86765l5.75274 1.10079c3.93852.82896 6.15619-4.4975 2.63121-7.26229-.7499-.53152-8.27096-4.04173-9.68588-4.44078-1.26974-.3581-2.78089.14533-3.75024 1.24936l-5.85918 10.88112c-.60845.8393-.61164 1.71753-.25253 2.49043l10.72151 21.51532c.34668.65416.17252 2.20422.17823 2.73721l-1.28045 13.4895zm8.9707-38.19102c1.9434-2.20392-1.65635-8.33602-3.1421-6.55824l-9.61026 12.58549c-2.81396 3.5023 1.43178 6.96399 4.448 4.80543.26564-.24803.41253-.37935.60397-.63064zm-4.69458-9.5376c-1.42924-1.48182-4.34931-3.63245-4.73609-3.48403l-10.71091 14.46057c-2.88854 2.81736.36005 6.17635 3.51209 5.84536.43402-.12765.58795-.21146.85842-.46309l11.1656-14.42916c.4913-.6349.32485-1.41907-.0891-1.92965zm-6.36258-4.6579c-.10642-.74107-4.82207-4.542483-5.18836-4.06928l-5.44048 7.02851c6.87574 7.48663-1.14912 12.14096-5.91293 9.41949.59683 1.91529 4.16535 3.90113 5.27266 2.44458zm-6.5656-5.245518c-1.03574-2.192098-5.14677-3.858126-7.00157-3.15132l-5.88314 7.251058 7.38969 3.05534z" id="path4606" inkscape:connector-curvature="0" sodipodi:nodetypes="ccccccccscccccccccccccccccccccscccsccscccccc"/></g><rect ry="6.5778751" y="175.19803" x="69.227318" height="23.844799" width="52.825401" id="rect4610" style="opacity:1;fill:#ff5000;fill-opacity:1;stroke:none;stroke-width:16.03646088;stroke-miterlimit:4;stroke-dasharray:none;stroke-opacity:.5098038"/><rect ry="4.0110912" y="179.85034" x="82.062675" height="14.540206" width="27.154684" id="rect4610-3" style="opacity:1;fill:#1359ff;fill-opacity:1;stroke:none;stroke-width:8.97837925;stroke-miterlimit:4;stroke-dasharray:none;stroke-opacity:.5098038"/></g></g></g></g><g style="display:inline" inkscape:groupmode="layer" id="layer2" inkscape:label="Icon"><path d="m3.9999777 4.0333382H15.999978V15.966671H3.9999777z" id="path4" inkscape:connector-curvature="0" style="fill:none"/><path style="fill:none" inkscape:connector-curvature="0" id="path9956" d="m18.999978 19.033339h12v11.933333h-12z"/></g></svg>